<svg width="98" height="98" viewBox="0 0 98 98" fill="none" xmlns="http://www.w3.org/2000/svg">
<path fill-rule="evenodd" clip-rule="evenodd" d="M96.4688 53.3172V46.9699C97.3798 46.488 98 45.5994 98 44.5714C98 19.9541 76.0618 0 49 0C21.9382 0 0 19.9541 0 44.5714C0 45.5994 0.620156 46.488 1.53125 46.9699V53.3172C0.621688 53.8019 0 54.6905 0 55.7143V66.8571C0 68.3879 1.37812 69.6429 3.0625 69.6429C4.74688 69.6429 6.125 68.3879 6.125 66.8571V65.4643H7.65625V71.0357C7.65625 74.8661 11.1016 78 15.3125 78H16.8438C19.3703 78 21.4375 76.1183 21.4375 73.8214V48.75C21.4375 46.4504 19.3703 44.5714 16.8438 44.5714H15.3125C11.1016 44.5714 7.65625 47.7054 7.65625 51.5357V58.5H6.125V55.7143C6.125 54.6905 5.50331 53.8019 4.59375 53.3172V46.9699C5.50484 46.488 6.125 45.5994 6.125 44.5714C6.125 23.0323 25.3208 5.57143 49 5.57143C72.6792 5.57143 91.875 23.0323 91.875 44.5714C91.875 45.5994 92.4952 46.488 93.4062 46.9699V53.3172C92.4967 53.8019 91.875 54.6905 91.875 55.7143V58.5H90.3438V51.5357C90.3438 47.7054 86.8984 44.5714 82.6875 44.5714H81.1562C78.6297 44.5714 76.5625 46.4504 76.5625 48.75V73.8214C76.5625 76.1183 78.6297 78 81.1562 78H82.6875C86.8984 78 90.3438 74.8661 90.3438 71.0357V65.4643H91.875V66.8571C91.875 68.3879 93.2531 69.6429 94.9375 69.6429C96.6219 69.6429 98 68.3879 98 66.8571V55.7143C98 54.6905 97.3783 53.8019 96.4688 53.3172Z" fill="#9AA3B2"/>
<path fill-rule="evenodd" clip-rule="evenodd" d="M49 28.8168C30.1533 28.8168 14.875 44.0951 14.875 62.9418C14.875 81.7885 30.1533 97.0668 49 97.0668C67.8467 97.0668 83.125 81.7885 83.125 62.9418C83.125 44.0951 67.8467 28.8168 49 28.8168Z" fill="#F8FAFC"/>
</svg>
