<svg width="24" height="24" viewBox="0 0 24 24" fill="none" xmlns="http://www.w3.org/2000/svg">
<path fill-rule="evenodd" clip-rule="evenodd" d="M12 24C18.6274 24 24 18.6274 24 12C24 5.37258 18.6274 0 12 0C5.37258 0 0 5.37258 0 12C0 18.6274 5.37258 24 12 24ZM10.512 16.4571C10.512 17.2856 11.1836 17.9571 12.012 17.9571C12.8404 17.9571 13.512 17.2856 13.512 16.4571V11.6571C13.512 10.8287 12.8404 10.1571 12.012 10.1571C11.1836 10.1571 10.512 10.8287 10.512 11.6571V16.4571ZM12.012 8.35715C12.8404 8.35715 13.512 7.68557 13.512 6.85715C13.512 6.02872 12.8404 5.35715 12.012 5.35715H12C11.1716 5.35715 10.5 6.02872 10.5 6.85715C10.5 7.68557 11.1716 8.35715 12 8.35715H12.012Z" fill="#F8FAFC"/>
</svg>
