<svg width="117" height="126" viewBox="0 0 117 126" fill="none" xmlns="http://www.w3.org/2000/svg">
<path d="M68.0156 68.2363L61 60.6343L67.447 57.9074L68.0156 68.2363Z" fill="white"/>
<path d="M74.4626 65.5095L67.447 57.9075L73.8941 55.1806L74.4626 65.5095Z" fill="white"/>
<path d="M80.9096 62.7827L73.894 55.1807L80.3411 52.4538L80.9096 62.7827Z" fill="white"/>
<path d="M87.3566 60.0556L80.3411 52.4536L86.7881 49.7268L87.3566 60.0556Z" fill="white"/>
<path d="M93.8036 57.3288L86.7881 49.7268L93.2351 47L93.8036 57.3288Z" fill="white"/>
<path d="M94.1875 78.5935L94.9614 86.8337L88.3691 84.4796L94.1875 78.5935Z" fill="white"/>
<path d="M87.5952 76.2395L88.3691 84.4797L81.7769 82.1256L87.5952 76.2395Z" fill="white"/>
<path d="M81.003 73.8853L81.7769 82.1255L75.1846 79.7714L81.003 73.8853Z" fill="white"/>
<path d="M74.4107 71.5313L75.1846 79.7715L68.5923 77.4174L74.4107 71.5313Z" fill="white"/>
<path d="M67.8184 69.177L68.5923 77.4172L62 75.0631L67.8184 69.177Z" fill="white"/>
<rect x="29.0357" y="5.51953" width="23.9617" height="24.9886" rx="4" transform="rotate(-13.3175 29.0357 5.51953)" fill="#FF0000"/>
<path d="M95.2196 46.5172C90.4986 38.2997 83.1753 31.8885 74.4057 28.2954C65.6361 24.7024 55.9197 24.1322 46.7901 26.6749C37.6604 29.2175 29.6375 34.7282 23.9877 42.3371C18.3379 49.946 15.383 59.2198 15.5894 68.6947C15.7958 78.1695 19.1517 87.3058 25.1274 94.6615C31.1032 102.017 39.3584 107.173 48.5901 109.316C57.8218 111.459 67.5042 110.466 76.109 106.495C84.7139 102.523 91.751 95.799 96.1098 87.3837L58.2341 67.7658L95.2196 46.5172Z" fill="#FFD954"/>
<circle cx="51.4426" cy="46.8805" r="6.7914" fill="#172030"/>
<rect x="27.2623" y="27.749" width="37.6541" height="5.47696" rx="2" transform="rotate(-13.3175 27.2623 27.749)" fill="white"/>
<rect x="24.5444" y="32.6135" width="45.8696" height="7.53082" rx="2" transform="rotate(-13.3175 24.5444 32.6135)" fill="#EF0000"/>
</svg>
